<svg id="Layer_1" data-name="Layer 1" xmlns="http://www.w3.org/2000/svg" viewBox="0 0 25.32 23.54"><defs></defs><title>Add Playlist</title><path class="cls-1" d="M274.81,257.95v2.42a.34.34,0,0,1-.34.34h-3.84v3.84a.34.34,0,0,1-.34.34h-2.42a.34.34,0,0,1-.34-.34h0v-3.84h-3.84a.34.34,0,0,1-.34-.34h0v-2.42a.34.34,0,0,1,.34-.34h3.84v-3.84a.34.34,0,0,1,.34-.34h2.45a.34.34,0,0,1,.34.34h0v3.84h3.84A.34.34,0,0,1,274.81,257.95Z" transform="translate(-249.68 -241.35)"/><path class="cls-1" d="M260.44,255.36v2.07a.47.47,0,0,1-.47.47h-9.83a.47.47,0,0,1-.47-.47v-2.07a.47.47,0,0,1,.47-.47H260A.47.47,0,0,1,260.44,255.36Z" transform="translate(-249.68 -241.35)"/><path class="cls-1" d="M275,248.36v2.07a.47.47,0,0,1-.47.47H250.15a.47.47,0,0,1-.47-.47h0v-2.07a.47.47,0,0,1,.47-.47H274.5A.47.47,0,0,1,275,248.36Z" transform="translate(-249.68 -241.35)"/><path class="cls-1" d="M275,241.82v2.07a.47.47,0,0,1-.47.47H250.18a.47.47,0,0,1-.47-.47h0v-2.07a.47.47,0,0,1,.47-.47h24.35A.47.47,0,0,1,275,241.82Z" transform="translate(-249.68 -241.35)"/></svg>