<svg id="Layer_1" data-name="Layer 1" xmlns="http://www.w3.org/2000/svg" viewBox="0 0 268 289.88"><defs></defs><title>Album</title><path class="cls-1" d="M256,250.93a5.07,5.07,0,1,0,5.07,5.07A5.07,5.07,0,0,0,256,250.93Zm0,6.93a1.87,1.87,0,1,1,1.87-1.87A1.87,1.87,0,0,1,256,257.87Z" transform="translate(0 -244)"/><path class="cls-1" d="M256,254.67a1.33,1.33,0,1,0,1.33,1.33A1.33,1.33,0,0,0,256,254.67Z" transform="translate(0 -244)"/><path class="cls-1" d="M256,244a12,12,0,1,0,12,12A12,12,0,0,0,256,244Zm0,21.33a9.34,9.34,0,0,1-9.33-9.33.27.27,0,1,1,.53,0,8.81,8.81,0,0,0,8.8,8.8.27.27,0,1,1,0,.53Zm0-3.73a5.6,5.6,0,1,1,5.6-5.6A5.61,5.61,0,0,1,256,261.6Zm9.07-5.33a.27.27,0,0,1-.27-.27,8.81,8.81,0,0,0-8.8-8.8.27.27,0,0,1,0-.53,9.34,9.34,0,0,1,9.33,9.33A.27.27,0,0,1,265.07,256.27Z" transform="translate(0 -244)"/><text class="cls-2" y="-244"></text><text class="cls-2" y="-244"></text></svg>