<svg xmlns="http://www.w3.org/2000/svg" viewBox="0 0 24 24"><path d="M6.13579,13.8393c0.50376,-0.3778 1.16534,-0.5893 1.86421,-0.5893c0.44171,0 0.86852,0.0845 1.25,0.2421v-3.72287c0,-0.30772 0.18796,-0.58421 0.4741,-0.69741l7,-2.76923c0.231,-0.09136 0.4922,-0.06247 0.6975,0.07716c0.2054,0.13963 0.3284,0.37189 0.3284,0.62025v7.6154c0,0.0664 -0.0086,0.1308 -0.0249,0.1922c-0.0923,0.5648 -0.4324,1.0317 -0.8609,1.3531c-0.5038,0.3778 -1.1653,0.5893 -1.8642,0.5893c-0.6989,0 -1.3604,-0.2115 -1.8642,-0.5893c-0.504,-0.378 -0.8858,-0.9575 -0.8858,-1.6607c0,-0.7032 0.3818,-1.2827 0.8858,-1.6607c0.5038,-0.3778 1.1653,-0.5893 1.8642,-0.5893c0.4417,0 0.8685,0.0845 1.25,0.2421v-4.38884l-5.5,2.17584v5.2209c0,0.7032 -0.3818,1.2827 -0.88579,1.6607c-0.50376,0.3778 -1.16534,0.5893 -1.86421,0.5893c-0.69887,0 -1.36045,-0.2115 -1.86421,-0.5893c-0.504,-0.378 -0.88579,-0.9575 -0.88579,-1.6607c0,-0.7032 0.38179,-1.2827 0.88579,-1.6607Z"/><path fill-rule="evenodd" d="M12,1.25c-5.93706,0 -10.75,4.81294 -10.75,10.75c0,5.9371 4.81294,10.75 10.75,10.75c5.9371,0 10.75,-4.8129 10.75,-10.75c0,-5.93706 -4.8129,-10.75 -10.75,-10.75Zm-9.25,10.75c0,-5.10863 4.14137,-9.25 9.25,-9.25c5.1086,0 9.25,4.14137 9.25,9.25c0,5.1086 -4.1414,9.25 -9.25,9.25c-5.10863,0 -9.25,-4.1414 -9.25,-9.25Z"/></svg>