<svg id="Layer_1" data-name="Layer 1" xmlns="http://www.w3.org/2000/svg" viewBox="0 0 25.15 24"><defs></defs><title>Artiste</title><path class="cls-1" d="M56.75,52.69l5.42-4.47a1.09,1.09,0,0,0-.64-1.93l-7-.42a1.1,1.1,0,0,1-1-.69L51,38.61a1.09,1.09,0,0,0-2,0l-2.57,6.54a1.1,1.1,0,0,1-1,.69l-7,.42a1.09,1.09,0,0,0-.64,1.93l5.42,4.45a1.11,1.11,0,0,1,.37,1.11l-1.77,6.8a1.09,1.09,0,0,0,1.64,1.19L49.39,58a1,1,0,0,1,1.16,0l5.93,3.78a1.09,1.09,0,0,0,1.64-1.19l-1.77-6.78A1.09,1.09,0,0,1,56.75,52.69Z" transform="translate(-37.43 -37.91)"/></svg>