<svg id="Layer_1" data-name="Layer 1" xmlns="http://www.w3.org/2000/svg" viewBox="0 0 45 45"><defs></defs><title>Cloud Download</title><polygon class="cls-1" points="27 31.5 18 31.5 18 38.25 13.5 38.25 22.5 45 31.5 38.25 27 38.25 27 31.5"/><path class="cls-1" d="M27.75.75A7.82,7.82,0,0,0,19.88-6a6.23,6.23,0,0,0-2.93.68A11.35,11.35,0,0,0,7.5-10.5,11.14,11.14,0,0,0-3.75.75V1A7.82,7.82,0,0,0-10.5,8.85,7.93,7.93,0,0,0-2.62,16.5H26.63A8,8,0,0,0,34.5,8.62,8,8,0,0,0,27.75.75Z" transform="translate(10.5 10.5)"/></svg>