<svg id="Layer_1" data-name="Layer 1" xmlns="http://www.w3.org/2000/svg" viewBox="0 0 24 24"><defs></defs><title>Delete</title><path class="cls-1" d="M29.92,17.92a12,12,0,1,0,12,12A12,12,0,0,0,29.92,17.92Zm0,22.8a10.8,10.8,0,1,1,10.8-10.8A10.81,10.81,0,0,1,29.92,40.71Z" transform="translate(-17.92 -17.92)"/><path class="cls-1" d="M35.66,24.17a.6.6,0,0,0-.85,0l-4.89,4.89L25,24.17a.6.6,0,1,0-.85.85l4.89,4.89-4.89,4.89a.6.6,0,0,0,.85.85l4.89-4.89,4.89,4.89a.6.6,0,0,0,.85-.85l-4.89-4.89L35.66,25A.6.6,0,0,0,35.66,24.17Z" transform="translate(-17.92 -17.92)"/></svg>