<svg id="Layer_1" data-name="Layer 1" xmlns="http://www.w3.org/2000/svg" viewBox="0 0 24.03 24.93"><defs></defs><title>Discover 2</title><path class="cls-1" d="M7.91,14.64a5.5,5.5,0,0,1,.38-7.77q.2-.18.42-.34a.87.87,0,1,0-1-1.39A7.24,7.24,0,0,0,6.23,15.27q.2.27.43.53a.87.87,0,0,0,1.25-1.16Z" transform="translate(0 0.06)"/><path class="cls-1" d="M19.24,10.92a7.27,7.27,0,0,0-2.92-5.81.87.87,0,1,0-1,1.39,5.5,5.5,0,0,1,1.14,7.69q-.16.22-.34.42a.87.87,0,0,0,1.29,1.16A7.22,7.22,0,0,0,19.24,10.92Z" transform="translate(0 0.06)"/><path class="cls-1" d="M17.14.08a.87.87,0,1,0-.93,1.47l.19.09a10.26,10.26,0,0,1,1.31,17.8.88.88,0,0,0,1,1.44A12,12,0,0,0,17.17.07Z" transform="translate(0 0.06)"/><path class="cls-1" d="M6.29,19.45A10.26,10.26,0,0,1,7.6,1.64.87.87,0,1,0,7,0L6.86.07A12,12,0,0,0,5.32,20.88a.88.88,0,0,0,1-1.44Z" transform="translate(0 0.06)"/><path class="cls-1" d="M12.9,14a3.2,3.2,0,1,0-1.8,0L9.94,17.87l-2.06,7h8.23l-2.06-7Z" transform="translate(0 0.06)"/></svg>