<svg id="Layer_1" data-name="Layer 1" xmlns="http://www.w3.org/2000/svg" viewBox="0 0 23.81 32.77"><defs></defs><title>Donate Charity</title><path class="cls-1" d="M26.34,24.16a11,11,0,0,1-7.41-7.36c-.82-3,1-5.51,3-5.8,2.34-.35,3.35.65,4.44,1.64,1.09-1,2.1-2,4.44-1.64,1.93.29,3.79,2.84,3,5.8A11,11,0,0,1,26.34,24.16Z" transform="translate(-14.44 -10.94)"/><path class="cls-1" d="M38.14,31.13l-4.69-8.48a.84.84,0,0,0-.74-.43H32a12.39,12.39,0,0,1-2.1,1.68h2.31L36,30.7H16.7l3.76-6.8h2.31a12.43,12.43,0,0,1-2.1-1.68H20a.84.84,0,0,0-.74.43l-4.69,8.48a.83.83,0,0,0-.11.41v9.71a2.46,2.46,0,0,0,2.46,2.46H35.79a2.46,2.46,0,0,0,2.46-2.46V31.54A.84.84,0,0,0,38.14,31.13ZM26.9,41v1.26H25.69V41a5,5,0,0,1-2.09-.53L24,39.07a4.35,4.35,0,0,0,2,.54c.7,0,1.18-.27,1.18-.76s-.39-.76-1.31-1.07c-1.32-.44-2.22-1.06-2.22-2.25a2.28,2.28,0,0,1,2.08-2.19V32.16H27v1.08a4.46,4.46,0,0,1,1.79.41L28.39,35a4.08,4.08,0,0,0-1.77-.42c-.8,0-1.06.35-1.06.69S26,36,27,36.37c1.47.52,2.06,1.19,2.06,2.3A2.36,2.36,0,0,1,26.9,41Z" transform="translate(-14.44 -10.94)"/><polygon class="cls-1" points="15.74 15.48 11.9 15.48 8.07 15.48 7.4 16.95 11.9 16.95 16.41 16.95 15.74 15.48"/></svg>