<svg id="Layer_1" data-name="Layer 1" xmlns="http://www.w3.org/2000/svg" viewBox="0 0 26.5 24"><defs></defs><title>Donate</title><path class="cls-1" d="M63,42.23c-.35-1.5-2-3.77-3.5-3.77-2.27,0-4.53.12-6.83,0a20.21,20.21,0,0,0-7.09.56c-2,.68-2.68,2.3-3.68,4S39.19,46,38.08,47.68a8.34,8.34,0,0,0-1.18,6.13A5,5,0,0,0,38,56.23a1.32,1.32,0,0,1,0-.68,5.31,5.31,0,0,1,2.3-3.12c.29-.18.59-.32.94-.5l.35-.15a7.91,7.91,0,0,1,.82-1.44,5.09,5.09,0,0,1,4-2.77,2,2,0,0,1,2,1.74c.12,1.24-.94,1.44-2,1.83h0a.54.54,0,0,1-.21.06l-.18.06-.29.09h-.06a19.69,19.69,0,0,0-5,1.71c-1.27.8-3.15,3.21-1.38,4.39a.22.22,0,0,0,.12.06h0s.06,0,.12.06a.1.1,0,0,1,.06,0s.06,0,.12.06a.1.1,0,0,1,.06,0s.06,0,.12,0l.09,0s.06,0,.12,0a.11.11,0,0,1,.09,0,.22.22,0,0,1,.12,0h1a.18.18,0,0,0,.12,0h.06a.26.26,0,0,0,.15,0h.06a1.27,1.27,0,0,0,.15,0h.06l.18,0h0c.06,0,.15,0,.21-.06h0c1.21-.32,2.41-.94,3.33-1.24,2-.65,4.12-1.21,6.15-1.89a19.83,19.83,0,0,0,5.18-3.07,53,53,0,0,0,4.68-3.83C63.24,46,63.53,44.53,63,42.23Z" transform="translate(-36.74 -38.39)"/><path class="cls-1" d="M42.23,58.53h0c-.06,0-.15,0-.21.06h0l-.18,0h-.06a1.27,1.27,0,0,0-.15,0h-.06c-.06,0-.09,0-.15,0h-.06a.18.18,0,0,0-.12,0h-1a.22.22,0,0,1-.12,0,.11.11,0,0,1-.09,0s-.06,0-.12,0l-.09,0s-.06,0-.12,0a.1.1,0,0,1-.06,0s-.06,0-.12-.06a.1.1,0,0,1-.06,0s-.06,0-.12-.06h0a.22.22,0,0,0-.12-.06c-.47-.32-.68-.53-.71-1a2.8,2.8,0,0,0-.38,1.39,3.65,3.65,0,1,0,7.3,0,3.48,3.48,0,0,0-.26-1.36A29.37,29.37,0,0,1,42.23,58.53Z" transform="translate(-36.74 -38.39)"/></svg>