<svg id="Layer_1" data-name="Layer 1" xmlns="http://www.w3.org/2000/svg" viewBox="0 0 24.7 24"><defs></defs><title>Edit 2</title><path class="cls-1" d="M31.92,32.9a.89.89,0,0,1-.9.9H14.74a.89.89,0,0,1-.9-.9V16.6a.89.89,0,0,1,.9-.9H26.86V13.57H14.74a3.12,3.12,0,0,0-3.09,3.09V33A3.12,3.12,0,0,0,14.74,36H31A3.12,3.12,0,0,0,34.1,33V22.62H31.92Z" transform="translate(-11.65 -12.05)"/><path class="cls-1" d="M32.48,12.72l-.11.11,3.2,3.2.11-.11a2.26,2.26,0,1,0-3.2-3.2Z" transform="translate(-11.65 -12.05)"/><path class="cls-1" d="M21.08,24.13h0l-1.46,4.16c-.06.34.22.62.51.51l4.1-1.46h0L34.5,17.05l-3.2-3.2Z" transform="translate(-11.65 -12.05)"/></svg>