<svg id="Layer_1" data-name="Layer 1" xmlns="http://www.w3.org/2000/svg" viewBox="0 0 24 24.28"><defs></defs><title>Expansion 4</title><path class="cls-1" d="M43,38.5h-2.7a2.41,2.41,0,0,0-2.4,2.4v8.94H43V38.5Z" transform="translate(-37.93 -37.86)"/><polygon class="cls-1" points="11.55 0.64 6.07 0.64 6.07 8.3 11.55 6.64 11.55 0.64"/><path class="cls-1" d="M37.93,59.74a2.41,2.41,0,0,0,2.4,2.4H43V55.72h-5.1v4Z" transform="translate(-37.93 -37.86)"/><polygon class="cls-1" points="13.68 12.93 0 12.93 0 16.9 16.78 16.9 13.68 12.93"/><rect class="cls-1" x="6.07" y="17.86" width="5.67" height="6.42"/><path class="cls-1" d="M50.64,55.72v6.42h8.55a2.39,2.39,0,0,0,1-.25l-4.78-6.17Z" transform="translate(-37.93 -37.86)"/><path class="cls-1" d="M58.12,50.55a.93.93,0,0,1-.87-.55l-3.2-6.27a4.54,4.54,0,0,1-.25-3.47,4.64,4.64,0,0,1,1.07-1.78H50.44v6.71l-6.44,2V49.8h8.08l3.82,4.93h5.67V44.9c-1,1.91-2.58,5-2.6,5.08A.91.91,0,0,1,58.12,50.55Z" transform="translate(-37.93 -37.86)"/><path class="cls-1" d="M61,61.3a2.33,2.33,0,0,0,.57-1.56v-4H56.66Z" transform="translate(-37.93 -37.86)"/><path class="cls-1" d="M54.68,43.41l3.2,6.27a.27.27,0,0,0,.22.15.15.15,0,0,0,.1,0,.2.2,0,0,0,.12-.12s2.6-5.08,3.2-6.27a3.83,3.83,0,0,0,0-3.44,4,4,0,0,0-1.44-1.56,3.74,3.74,0,0,0-2-.55,3.84,3.84,0,0,0-1.71.4,3.79,3.79,0,0,0-1.91,2.23A4,4,0,0,0,54.68,43.41Zm3.44-3.91a2.18,2.18,0,1,1-2.18,2.18A2.18,2.18,0,0,1,58.12,39.5Z" transform="translate(-37.93 -37.86)"/><circle class="cls-1" cx="20.2" cy="3.86" r="1.46"/></svg>