<svg id="Layer_1" data-name="Layer 1" xmlns="http://www.w3.org/2000/svg" viewBox="0 0 29.2 24"><defs></defs><title>Gallery</title><path class="cls-1" d="M122.89,122H148.6v-5.13l-6.76-6.22-5.67,6.11,2.94,2.95a.93.93,0,0,1-1.31,1.31l-6.43-6.44Z" transform="translate(-119.4 -98)"/><path class="cls-1" d="M119.4,98v24h.65l10.79-9.38a.85.85,0,0,1,1.2,0l2.94,2.84,6.1-6.65a.89.89,0,0,1,1.31-.11l6.21,5.67V98Zm6.86,14.29a3.87,3.87,0,1,1,3.81-3.82A3.89,3.89,0,0,1,126.26,112.29Zm0-5.89a2,2,0,0,0-2.07,2.07,2,2,0,0,0,2.07,2,2,2,0,0,0,2-2A2,2,0,0,0,126.26,106.4Z" transform="translate(-119.4 -98)"/></svg>