<?xml version="1.0"?>
<svg width="863" height="1280" xmlns="http://www.w3.org/2000/svg" xmlns:svg="http://www.w3.org/2000/svg" preserveAspectRatio="xMidYMid meet" style="vector-effect: non-scaling-stroke;">
 <metadata>Created by potrace 1.15, written by Peter Selinger 2001-2017</metadata>
 <g class="layer">
  <title>Layer 1</title>
  <g fill="#000000" id="svg_1" transform="translate(0 1280) scale(0.1 -0.1)">
   <path d="m12571.429791,23285.00548c-513.488318,-5.440692 -949.601683,-16.322076 -1026.976635,-24.483115c-192.733971,-23.122942 -340.449789,-62.56796 -483.945154,-130.576612c-229.311221,-107.45367 -385.467943,-258.432878 -492.386058,-476.060564c-118.172654,-239.390455 -132.240827,-360.445856 -133.647644,-1074.536702c-1.406817,-444.776584 -4.220452,-534.548005 -21.10226,-556.310774c-30.949981,-39.445018 -30.949981,-874.591265 0,-914.036283c29.543163,-38.084845 29.543163,-516.865756 0,-554.950601c-30.949981,-39.445018 -30.949981,-871.870919 0,-915.396456c18.288625,-24.483115 21.10226,-541.34887 25.322712,-4228.777984l2.813635,-4201.574523l32.356798,-115.614708c94.25676,-338.683087 309.499808,-580.793888 635.881423,-714.090846c49.238606,-20.402596 156.156721,-54.406922 237.752125,-74.809517c81.595404,-21.762769 136.461279,-39.445018 120.986289,-39.445018c-21.10226,-1.360173 -22.509077,-5.440692 -9.847721,-17.68225c14.068173,-13.60173 528.963308,-17.68225 2475.998463,-17.68225c1351.951433,0 2475.998463,5.440692 2498.50754,10.881384c26.729529,6.800865 36.57725,14.961903 25.322712,21.762769c-9.847721,5.440692 40.797702,23.122942 113.952202,39.445018c479.724702,112.894362 761.088164,360.445856 884.888087,784.819845l32.356798,108.813843l4.220452,4272.303521c2.813635,3763.598804 5.627269,4275.023867 23.915894,4289.985771c30.949981,24.483115 30.949981,912.67611 0,938.519398c-16.881808,13.60173 -21.10226,197.225091 -23.915894,1309.846638l-4.220452,1294.884735l-37.984067,129.216439c-46.424971,164.580938 -94.25676,267.954089 -173.038529,374.047586c-187.106702,254.352359 -486.758789,409.412085 -882.074452,455.657969c-66.120413,8.161038 -614.779164,20.402596 -1216.896972,27.203461c-1181.726539,13.60173 -1267.542395,13.60173 -2608.23929,-1.360173zm4650.938022,-7057.937909l0,-5597.112063l-3263.816156,0l-3263.816156,0l-4.220452,5588.951025c-2.813635,4462.727747 0,5591.671371 14.068173,5601.192582c9.847721,5.440692 1481.378626,9.521211 3268.036607,6.800865l3249.747982,-2.720346l0,-5597.112063z" fill="black" id="svg_2"/>
  </g>
 </g>
</svg>