<svg id="Layer_1" data-name="Layer 1" xmlns="http://www.w3.org/2000/svg" viewBox="0 0 32 24"><defs></defs><title>Messages</title><path class="cls-1" d="M240.67,245.95c4.39,3.72,12.1,10.26,14.36,12.3a1.34,1.34,0,0,0,1.94,0c2.27-2,10-8.59,14.37-12.31a.67.67,0,0,0,.09-.92,2.65,2.65,0,0,0-2.09-1H242.67a2.65,2.65,0,0,0-2.09,1A.67.67,0,0,0,240.67,245.95Z" transform="translate(-240 -244)"/><path class="cls-1" d="M271.61,248a.66.66,0,0,0-.71.1c-4.87,4.13-11.09,9.42-13,11.18a2.7,2.7,0,0,1-3.72,0c-2.08-1.88-9.07-7.81-13-11.18a.67.67,0,0,0-1.1.51v16.77a2.67,2.67,0,0,0,2.67,2.67h26.67a2.67,2.67,0,0,0,2.67-2.67V248.57A.67.67,0,0,0,271.61,248Z" transform="translate(-240 -244)"/></svg>