<svg id="Layer_1" data-name="Layer 1" xmlns="http://www.w3.org/2000/svg" viewBox="0 0 24 24"><defs><style>.cls-1{fill:#99999f;}</style></defs><title>Music Library</title><path class="cls-1" d="M265.6,244H251.2a2.4,2.4,0,0,0-2.4,2.4v14.4a2.4,2.4,0,0,0,2.4,2.4h14.4a2.4,2.4,0,0,0,2.4-2.4V246.4A2.4,2.4,0,0,0,265.6,244Zm-2.4,6h-3.6v6.6a3,3,0,1,1-1.2-2.39V247.6h4.8Z" transform="translate(-244 -244)"/><path class="cls-1" d="M246.4,248.8H244v16.8a2.4,2.4,0,0,0,2.4,2.4h16.8v-2.4H246.4Z" transform="translate(-244 -244)"/></svg>