<svg id="Layer_1" data-name="Layer 1" xmlns="http://www.w3.org/2000/svg" viewBox="0 0 24 28"><defs></defs><title>Music_Library</title><ellipse class="cls-1" cx="9.23" cy="20.62" rx="1.85" ry="0.82"/><path class="cls-1" d="M234,246.92H212.77a4,4,0,0,1-1.85-.44v21.06a2.63,2.63,0,0,0,2.77,2.46H234a.88.88,0,0,0,.92-.82V247.74A.88.88,0,0,0,234,246.92Zm-7,13a1,1,0,0,1-1.21-.43.79.79,0,0,1,.49-1.08c1.72-.65,1.78-2.85-.23-3.53a7.1,7.1,0,0,1-2.18-1.18v9c0,1.38-1.62,2.46-3.69,2.46s-3.69-1.08-3.69-2.46,1.62-2.46,3.69-2.46a5.25,5.25,0,0,1,1.85.32v-9.34a1,1,0,0,1,1.75-.37,4.9,4.9,0,0,0,2.93,2.54C230.26,254.51,230.2,258.65,227,259.88Z" transform="translate(-210.92 -242)"/><path class="cls-1" d="M234,242H212.77a1.65,1.65,0,1,0,0,3.28h20.31v-1.64H234a.83.83,0,1,0,0-1.64Z" transform="translate(-210.92 -242)"/></svg>