<?xml version="1.0" encoding="utf-8"?>
<!-- Generator: Adobe Illustrator 21.1.0, SVG Export Plug-In . SVG Version: 6.00 Build 0)  -->
<svg version="1.1" id="Layer_1" xmlns="http://www.w3.org/2000/svg" xmlns:xlink="http://www.w3.org/1999/xlink" x="0px" y="0px"
	 viewBox="0 0 95.7 82"  xml:space="preserve">
<style type="text/css">
	.st0{fill:none;stroke:#F68426;stroke-width:12;}
	.st1{fill:#99999F;}
	.st2{fill:none;stroke:#F68426;stroke-width:10;}
</style>
<title>noAds</title>
<g>
	<ellipse class="st0" cx="46.9" cy="41" rx="22.3" ry="22.5"/>
	<path class="st1" d="M32.4,49.4l-1-2.7h-8.7l-1,2.7c-0.2,0.8-0.6,1.5-1,2.2c-0.3,0.4-0.9,0.6-1.4,0.6c-0.5,0-1.1-0.2-1.4-0.6
		c-0.4-0.3-0.6-0.8-0.6-1.4c0-0.3,0.1-0.6,0.1-0.9c0.1-0.3,0.3-0.7,0.5-1.3L23.4,34l0.6-1.4c0.2-0.5,0.4-1,0.7-1.4
		c0.2-0.4,0.6-0.7,1-0.9c0.5-0.2,1-0.4,1.5-0.3c0.5,0,1,0.1,1.5,0.3c0.4,0.2,0.7,0.5,1,0.9c0.3,0.4,0.5,0.8,0.6,1.2
		c0.2,0.4,0.4,1,0.6,1.7l5.6,13.8c0.3,0.7,0.6,1.5,0.6,2.3c0,0.5-0.2,1-0.6,1.4c-0.4,0.4-0.9,0.6-1.5,0.6c-0.3,0-0.6-0.1-0.9-0.2
		c-0.2-0.1-0.5-0.3-0.6-0.5c-0.2-0.3-0.4-0.6-0.5-1C32.7,50.1,32.6,49.7,32.4,49.4z M23.9,43.4h6.4l-3.2-8.8L23.9,43.4z M42.9,30.3
		h5.6c1.3,0,2.5,0.1,3.8,0.4c1.1,0.3,2,0.8,2.8,1.5c2.2,1.9,3.3,4.8,3.3,8.7c0,1.2-0.1,2.4-0.3,3.5c-0.2,1-0.5,2-1,2.9
		c-0.5,0.9-1.1,1.6-1.8,2.3c-0.6,0.5-1.2,0.9-1.9,1.2c-0.7,0.3-1.4,0.5-2.2,0.6c-0.9,0.1-1.8,0.2-2.6,0.2H43c-0.6,0-1.2-0.1-1.8-0.4
		c-0.4-0.2-0.7-0.6-0.8-1c-0.1-0.6-0.2-1.1-0.2-1.7V33c-0.2-1.2,0.6-2.4,1.8-2.7C42.3,30.3,42.6,30.3,42.9,30.3z M44.5,33.8v14.5
		h3.3c0.7,0,1.3,0,1.7-0.1c0.4,0,0.9-0.1,1.3-0.3c0.4-0.1,0.8-0.4,1.1-0.6C53.3,46.1,54,44,54,41c0-2.1-0.3-3.7-0.9-4.8
		c-0.5-0.9-1.3-1.7-2.3-2c-1.1-0.3-2.2-0.5-3.4-0.4L44.5,33.8L44.5,33.8z M78.3,45.3c0,1.2-0.3,2.5-1,3.5c-0.7,1.1-1.7,1.9-2.9,2.4
		c-1.4,0.6-3,0.9-4.5,0.9c-1.8,0.1-3.6-0.3-5.2-1.2c-1-0.6-1.8-1.4-2.4-2.3c-0.6-0.8-0.9-1.8-0.9-2.8c0-1.1,0.9-1.9,1.9-1.9
		c0.4,0,0.8,0.1,1.2,0.4c0.4,0.4,0.6,0.8,0.8,1.3c0.2,0.6,0.5,1.2,0.9,1.7c0.3,0.5,0.8,0.9,1.3,1.1c0.7,0.3,1.5,0.5,2.2,0.4
		c1.1,0,2.2-0.3,3.1-0.9c0.7-0.5,1.2-1.3,1.2-2.2c0-0.6-0.2-1.3-0.6-1.7c-0.5-0.5-1-0.8-1.7-1c-0.7-0.2-1.6-0.5-2.7-0.7
		c-1.3-0.3-2.6-0.7-3.8-1.3c-1-0.4-1.8-1.1-2.4-2c-0.6-0.9-0.9-2-0.9-3.1c0-1.1,0.3-2.2,1-3.1c0.7-1,1.7-1.7,2.8-2.1
		c1.4-0.5,2.8-0.8,4.3-0.7c1.1,0,2.3,0.1,3.4,0.5c0.9,0.3,1.7,0.7,2.4,1.3c0.6,0.5,1,1,1.4,1.7c0.3,0.5,0.4,1.1,0.4,1.7
		c0,0.5-0.2,1-0.5,1.4c-0.3,0.4-0.8,0.6-1.4,0.6c-0.4,0-0.8-0.1-1.1-0.4c-0.3-0.4-0.6-0.8-0.8-1.2c-0.3-0.7-0.8-1.4-1.4-1.9
		c-0.8-0.5-1.7-0.8-2.6-0.7c-1,0-1.9,0.2-2.7,0.7c-0.6,0.4-1,1-1,1.8c0,0.4,0.1,0.8,0.4,1.1c0.3,0.3,0.6,0.6,1,0.8
		c0.4,0.2,0.8,0.4,1.2,0.5c0.4,0.1,1.1,0.3,2.1,0.6c1.1,0.3,2.2,0.6,3.3,0.9c0.9,0.3,1.7,0.7,2.5,1.2c0.7,0.5,1.2,1.1,1.6,1.9
		C78.2,43.4,78.4,44.4,78.3,45.3z"/>
	<line class="st2" x1="31.3" y1="25.3" x2="62.4" y2="56.7"/>
</g>
</svg>
