<svg id="Layer_1" data-name="Layer 1" xmlns="http://www.w3.org/2000/svg" viewBox="0 0 24 28.8"><defs></defs><title>Notifications</title><path class="cls-1" d="M267.25,261.9a8,8,0,0,1-2.85-6.15V252.4a8.41,8.41,0,0,0-7.2-8.3v-1.3a1.2,1.2,0,1,0-2.4,0v1.3a8.41,8.41,0,0,0-7.2,8.3v3.35a8,8,0,0,1-2.87,6.16,2.1,2.1,0,0,0,1.37,3.69h19.8a2.1,2.1,0,0,0,1.35-3.7Z" transform="translate(-244 -241.6)"/><path class="cls-1" d="M256,270.4a4.51,4.51,0,0,0,4.41-3.6h-8.82A4.51,4.51,0,0,0,256,270.4Z" transform="translate(-244 -241.6)"/></svg>