<svg id="Layer_1" data-name="Layer 1" xmlns="http://www.w3.org/2000/svg" viewBox="0 0 436.83 457.2"><defs></defs><title>Playlist 1</title><path class="cls-1" d="M409.83,411.34h15v3.32h-15Zm17.4,18.33v-12.3a1.33,1.33,0,0,1,1.33-1.32h6.94a1.33,1.33,0,0,1,1.33,1.32v1.11a1.42,1.42,0,0,1-1.33,1.32l-6,1v11.57c0,1.66-1.85,3-4.13,3s-4.13-1.34-4.13-3c0-2.79,3.81-3.49,6-2.67Zm-17.4-5.15h15v3.32h-15v-3.32Zm0-6.59h15v3.32h-15Z" transform="translate(0 -411.34)"/><text class="cls-2" transform="translate(0 450.32)">Created by Ikipoh</text><text class="cls-2" transform="translate(0 455.32)">from the Noun Project</text></svg>