<svg id="Layer_1" data-name="Layer 1" xmlns="http://www.w3.org/2000/svg" viewBox="0 0 24 32"><defs></defs><title>Profile</title><path class="cls-1" d="M256,255.65c3.51,0,6.35-3.5,6.35-7.83S261.42,240,256,240s-6.35,3.5-6.35,7.83S252.49,255.65,256,255.65Z" transform="translate(-244 -240)"/><path class="cls-1" d="M244,267.6c0-.26,0-.07,0,0Z" transform="translate(-244 -240)"/><path class="cls-1" d="M268,267.8c0-.07,0-.5,0,0Z" transform="translate(-244 -240)"/><path class="cls-1" d="M268,267.28c-.12-7.53-1.09-9.67-8.51-11a5.16,5.16,0,0,1-7,0c-7.34,1.34-8.37,3.46-8.5,10.79,0,.6,0,.63,0,.56,0,.13,0,.37,0,.79,0,0,1.77,3.61,12,3.61s12-3.61,12-3.61c0-.27,0-.46,0-.59A4.91,4.91,0,0,1,268,267.28Z" transform="translate(-244 -240)"/></svg>