<svg id="Layer_1" data-name="Layer 1" xmlns="http://www.w3.org/2000/svg" viewBox="0 0 24 24.1"><defs></defs><title>Referral</title><path class="cls-1" d="M30,19.35a3.2,3.2,0,0,0-1.28,5.38,3.17,3.17,0,0,0,5.47-2.24C34.17,20.29,31.89,18.57,30,19.35Z" transform="translate(-18.95 -19.16)"/><path class="cls-1" d="M24.74,23.79a10.73,10.73,0,0,0-4.51,6.67c-.44,2.36-.2,3.41.8,3.41.6,0,.76-.27.76-1.53A9.12,9.12,0,0,1,26,24.77c1.32-.75,1.72-1.61,1-2A4.85,4.85,0,0,0,24.74,23.79Z" transform="translate(-18.95 -19.16)"/><path class="cls-1" d="M34.69,23.16a.8.8,0,0,0,.48,1.06c2.92,1.73,5,5,5,8,0,1.45.12,1.69.84,1.69s.84-.16.68-2.51a10.11,10.11,0,0,0-4.23-7.58C35.49,22.33,35,22.22,34.69,23.16Z" transform="translate(-18.95 -19.16)"/><path class="cls-1" d="M19.87,35.17a3.17,3.17,0,0,0,2.44,5.38,2.9,2.9,0,0,0,3.08-3.14A3.23,3.23,0,0,0,19.87,35.17Z" transform="translate(-18.95 -19.16)"/><path class="cls-1" d="M37.36,35.25a3.12,3.12,0,0,0,2.4,5.3A3,3,0,0,0,43,37.37,3.23,3.23,0,0,0,37.36,35.25Z" transform="translate(-18.95 -19.16)"/><path class="cls-1" d="M24.62,40.31c-.6.71.4,1.45,3.12,2.39a9.79,9.79,0,0,0,7-.2c2.56-.94,3.31-1.65,2.52-2.32-.4-.31-1-.24-2.2.35a11.15,11.15,0,0,1-8.27,0C24.9,39.61,25.18,39.64,24.62,40.31Z" transform="translate(-18.95 -19.16)"/></svg>