<svg id="Layer_1" data-name="Layer 1" xmlns="http://www.w3.org/2000/svg" viewBox="0 0 24 24"><defs></defs><title>Settings</title><path class="cls-1" d="M266.67,253.39l-1.88-.24a9.45,9.45,0,0,0-.57-1.37l1.16-1.49a1.49,1.49,0,0,0-.12-2l-1.58-1.57a1.49,1.49,0,0,0-2-.13l-1.49,1.16a9.42,9.42,0,0,0-1.38-.57l-.24-1.88a1.5,1.5,0,0,0-1.49-1.32h-2.24a1.5,1.5,0,0,0-1.49,1.32l-.24,1.88a9.31,9.31,0,0,0-1.38.57l-1.49-1.16a1.49,1.49,0,0,0-2,.12l-1.58,1.57a1.49,1.49,0,0,0-.13,2l1.16,1.49a9.34,9.34,0,0,0-.57,1.37l-1.88.24a1.5,1.5,0,0,0-1.32,1.49v2.24a1.5,1.5,0,0,0,1.32,1.49l1.88.24a9.45,9.45,0,0,0,.57,1.37l-1.16,1.5a1.49,1.49,0,0,0,.12,2l1.58,1.58a1.49,1.49,0,0,0,2,.13l1.49-1.16a9.23,9.23,0,0,0,1.37.57l.24,1.88a1.5,1.5,0,0,0,1.49,1.32h2.24a1.5,1.5,0,0,0,1.49-1.32l.24-1.88a9.45,9.45,0,0,0,1.37-.57l1.5,1.16a1.49,1.49,0,0,0,2-.12l1.58-1.58a1.49,1.49,0,0,0,.13-2l-1.16-1.49a9.23,9.23,0,0,0,.57-1.37l1.88-.24a1.5,1.5,0,0,0,1.32-1.49v-2.24a1.5,1.5,0,0,0-1.32-1.49ZM256,261a5,5,0,1,1,5-5,5,5,0,0,1-5,5Z" transform="translate(-243.99 -244)"/></svg>