<svg id="Layer_1" data-name="Layer 1" xmlns="http://www.w3.org/2000/svg" viewBox="0 0 58 45"><defs></defs><title>streaming</title><path class="cls-1" d="M26.69,60.92V58.48a8.84,8.84,0,0,1,8,8.21H32.34A6.45,6.45,0,0,0,26.69,60.92Z" transform="translate(-21 -27.5)"/><path class="cls-1" d="M26.69,57.1V53.66a13.62,13.62,0,0,1,12.75,13H36.08A10.22,10.22,0,0,0,26.69,57.1Z" transform="translate(-21 -27.5)"/><path class="cls-1" d="M26.69,52.27V48.85A18.37,18.37,0,0,1,44.14,66.69H40.8A15,15,0,0,0,26.69,52.27Z" transform="translate(-21 -27.5)"/><path class="cls-1" d="M26,72.5a5.12,5.12,0,1,1,5-5.12A5.07,5.07,0,0,1,26,72.5Z" transform="translate(-21 -27.5)"/><path class="cls-1" d="M74,27.5H31.69a5.07,5.07,0,0,0-5,5.12V47.46A19.74,19.74,0,0,1,45.5,66.69H74a5.07,5.07,0,0,0,5-5.12v-29A5.07,5.07,0,0,0,74,27.5ZM48.41,54.92V39.27L63.66,47.1Z" transform="translate(-21 -27.5)"/></svg>