<svg id="Layer_1" data-name="Layer 1" xmlns="http://www.w3.org/2000/svg" viewBox="0 0 24 34.5"><defs></defs><title>Trending, What&amp;apos;s Hot</title><path class="cls-1" d="M237.13,247.71a1,1,0,0,0-1.15-.45,1,1,0,0,0-.75,1,2.27,2.27,0,0,1-4.54,0v-8.47a1,1,0,0,0-.63-.93,1,1,0,0,0-1.12.22,49.57,49.57,0,0,0-5.62,6.92,39.08,39.08,0,0,0-3.87,7.12,22.3,22.3,0,0,0-1.79,8.33,12,12,0,0,0,24,0C241.67,257.24,240.14,252.62,237.13,247.71Zm-.62,13.44a1,1,0,0,1-2,0v-1.89l-5.1,5a1,1,0,0,1-1.45,0l-2.38-2.35-1.6,1.58a1,1,0,0,1-1.45,0,1,1,0,0,1,0-1.43l2.33-2.3a1,1,0,0,1,1.45,0l2.38,2.35,4.38-4.32h-1.92a1,1,0,1,1,0-2h4.39a1,1,0,0,1,1,1v4.33Z" transform="translate(-217.67 -238.75)"/></svg>