<?xml version="1.0" encoding="iso-8859-1"?>
<!-- Generator: Adobe Illustrator 19.0.0, SVG Export Plug-In . SVG Version: 6.00 Build 0)  -->
<svg version="1.1" id="Layer_1" xmlns="http://www.w3.org/2000/svg" xmlns:xlink="http://www.w3.org/1999/xlink" x="0px" y="0px"
	 viewBox="0 0 330 330"  xml:space="preserve">
<g id="XMLID_235_">
	<path id="XMLID_236_" d="M52.25,62.75c0,34.601,28.149,62.75,62.75,62.75c34.602,0,62.751-28.149,62.751-62.75S149.602,0,115,0
		C80.399,0,52.25,28.149,52.25,62.75z"/>
	<path id="XMLID_237_" d="M15,285.5h115V315c0,8.284,6.716,15,15,15h45.333c3.977,0,7.794-1.58,10.607-4.394L325.606,200.94
		c5.858-5.857,5.858-15.354,0-21.213l-45.333-45.333c-2.813-2.813-6.628-4.394-10.606-4.394c-3.978,0-7.794,1.58-10.607,4.394
		l-58.853,58.854C178.576,169.347,147.842,155.5,115,155.5c-63.411,0-115,51.589-115,115C0,278.784,6.716,285.5,15,285.5z"/>
</g>
<g>
</g>
<g>
</g>
<g>
</g>
<g>
</g>
<g>
</g>
<g>
</g>
<g>
</g>
<g>
</g>
<g>
</g>
<g>
</g>
<g>
</g>
<g>
</g>
<g>
</g>
<g>
</g>
<g>
</g>
</svg>
